<?xml version="1.0" standalone="no"?>
<svg version="1.0" xmlns="http://www.w3.org/2000/svg"
 width="492pt" height="479pt" viewBox="0 0 492.000000 479.000000"
 preserveAspectRatio="xMidYMid meet">

    <g transform="translate(0.000000,479.000000) scale(0.100000,-0.100000)"
    fill="#000000" stroke="none">
        <path d="M2372 4371 c-137 -47 -198 -185 -137 -308 45 -89 137 -139 243 -131
        217 16 310 256 151 391 -44 39 -119 67 -173 67 -17 -1 -55 -9 -84 -19z"/>
        <path d="M3155 4214 c-94 -33 -165 -132 -165 -229 0 -103 82 -209 183 -236
        180 -49 354 89 333 265 -18 156 -194 256 -351 200z"/>
        <path d="M1560 4208 c-50 -17 -133 -104 -148 -154 -17 -59 -15 -112 9 -164 54
        -120 182 -176 313 -138 55 16 140 101 155 154 33 118 -9 219 -117 286 -41 25
        -157 34 -212 16z"/>
        <path d="M3030 2914 c-305 -537 -559 -983 -565 -990 -7 -10 -156 239 -579 971
        -313 542 -571 985 -574 985 -23 0 -289 -174 -383 -251 -90 -73 -249 -230 -323
        -319 -309 -369 -487 -820 -503 -1271 l-6 -166 453 -6 c249 -4 1312 -7 2362 -7
        1752 0 1909 1 1915 16 11 30 -17 337 -43 464 -116 572 -464 1083 -964 1415
        -85 56 -220 135 -231 135 -2 0 -254 -440 -559 -976z"/>
        <path d="M2043 3639 c-156 -29 -243 -186 -183 -327 84 -196 367 -200 456 -7
        83 178 -75 371 -273 334z"/>
        <path d="M2790 3639 c-108 -20 -190 -111 -198 -219 -5 -72 9 -115 54 -169 141
        -165 415 -86 441 127 18 159 -132 291 -297 261z"/>
        <path d="M2380 2965 c-154 -48 -219 -238 -125 -365 58 -79 162 -119 255 -99
        193 41 266 264 130 400 -72 72 -161 94 -260 64z"/>
        <path d="M424 1676 c-14 -37 0 -51 54 -54 l52 -3 0 -145 0 -144 40 0 40 0 0
        145 0 145 50 0 50 0 0 35 0 35 -140 0 c-113 0 -142 -3 -146 -14z"/>
        <path d="M970 1511 l0 -181 35 0 35 0 0 75 0 75 70 0 70 0 0 -75 0 -75 40 0
        40 0 -2 178 -3 177 -35 0 -35 0 -3 -72 -3 -73 -69 0 -69 0 -3 73 -3 72 -32 3
        -33 3 0 -180z"/>
        <path d="M1540 1510 l0 -180 140 0 140 0 0 30 0 30 -106 0 -105 0 3 48 3 47
        93 3 93 3 -3 27 c-3 27 -3 27 -95 30 l-93 3 0 34 0 35 100 0 100 0 0 35 0 35
        -135 0 -135 0 0 -180z"/>
        <path d="M2400 1673 c0 -10 18 -90 39 -178 l38 -160 41 -3 c46 -3 42 -10 83
        148 12 47 25 89 29 93 4 4 22 -49 40 -118 l33 -125 42 0 41 0 37 158 c21 86
        40 167 44 180 5 22 3 23 -33 20 l-38 -3 -26 -120 c-14 -66 -29 -115 -32 -110
        -3 6 -18 61 -33 123 l-27 112 -44 0 c-49 0 -39 17 -85 -155 l-23 -90 -12 45
        c-7 25 -20 80 -29 123 l-17 77 -34 0 c-26 0 -34 -4 -34 -17z"/>
        <path d="M3117 1684 c-4 -4 -7 -85 -7 -181 l0 -173 140 0 140 0 0 30 0 30
        -100 0 -100 0 0 50 0 50 90 0 90 0 0 30 0 30 -90 0 -90 0 0 35 0 34 98 3 97 3
        0 30 0 30 -131 3 c-71 1 -133 -1 -137 -4z"/>
        <path d="M3660 1505 l0 -175 130 0 130 0 0 30 0 30 -90 0 -90 0 0 145 0 145
        -40 0 -40 0 0 -175z"/>
        <path d="M4180 1505 l0 -175 125 0 125 0 0 30 0 30 -90 0 -90 0 0 145 0 145
        -35 0 -35 0 0 -175z"/>
        <path d="M716 1070 c-48 -15 -76 -49 -76 -90 0 -66 29 -89 147 -120 54 -14 71
        -42 43 -70 -36 -36 -112 -22 -130 24 -7 19 -14 22 -44 18 -41 -5 -40 -2 -22
        -47 21 -50 68 -75 142 -75 77 0 125 28 138 82 17 69 -26 121 -119 142 -58 13
        -85 28 -85 47 0 19 34 39 66 39 8 0 26 -11 40 -25 17 -17 36 -25 60 -25 32 0
        35 2 28 23 -7 25 -31 55 -54 67 -25 14 -103 20 -134 10z"/>
        <path d="M2337 1066 c-78 -29 -111 -80 -111 -177 0 -72 19 -117 66 -152 38
        -28 133 -35 177 -13 31 16 71 69 71 93 0 17 -63 29 -69 12 -9 -28 -51 -59 -80
        -59 -49 0 -83 37 -89 98 -9 96 19 142 88 142 29 0 45 -6 63 -26 20 -22 30 -25
        56 -19 36 8 35 6 19 40 -25 55 -122 86 -191 61z"/>
        <path d="M1160 1040 c0 -30 1 -30 55 -30 l55 0 0 -150 0 -150 35 0 35 0 0 150
        0 150 55 0 c54 0 55 0 55 30 l0 30 -145 0 -145 0 0 -30z"/>
        <path d="M1767 1062 c-7 -10 -123 -303 -131 -329 -7 -21 -4 -23 29 -23 33 0
        38 4 52 40 l16 40 77 0 77 0 12 -40 c11 -38 14 -40 51 -40 22 0 40 3 40 6 0 3
        -32 84 -71 180 l-71 174 -39 0 c-21 0 -40 -3 -42 -8z m65 -140 c10 -26 18 -50
        18 -54 0 -5 -20 -8 -44 -8 l-45 0 21 61 c11 33 23 57 26 54 4 -3 14 -27 24
        -53z"/>
        <path d="M2810 890 l0 -180 35 0 35 0 0 53 c0 47 4 57 33 85 l32 32 49 -81
        c26 -44 54 -83 61 -85 7 -3 29 -4 49 -2 l36 3 -72 108 -72 108 69 69 69 70
        -49 0 c-48 0 -51 -2 -127 -77 l-78 -78 0 78 0 77 -35 0 -35 0 0 -180z"/>
        <path d="M3380 890 l0 -180 140 0 140 0 0 30 0 30 -100 0 -100 0 0 50 0 50 90
        0 90 0 0 30 0 30 -90 0 -90 0 0 40 0 40 95 0 95 0 0 30 0 30 -135 0 -135 0 0
        -180z"/>
        <path d="M3930 889 l0 -181 98 4 c154 6 202 48 202 178 0 78 -21 125 -69 157
        -30 20 -47 23 -132 23 l-99 0 0 -181z m197 97 c26 -22 28 -30 28 -95 0 -91
        -18 -112 -99 -119 l-56 -4 0 121 0 121 49 0 c38 0 56 -6 78 -24z"/>
        <path d="M440 281 l0 -181 40 0 40 0 0 65 0 65 38 0 c108 1 162 39 162 115 0
        35 -6 52 -28 77 -29 31 -30 31 -140 36 l-112 5 0 -182z m169 110 c13 -3 27
        -16 32 -28 12 -33 -17 -61 -73 -69 l-48 -6 0 56 0 56 33 -1 c17 -1 43 -4 56
        -8z"/>
        <path d="M987 453 c-4 -3 -7 -84 -7 -180 l0 -173 40 0 40 0 0 180 0 180 -33 0
        c-19 0 -37 -3 -40 -7z"/>
        <path d="M1327 453 c-4 -3 -7 -17 -7 -29 0 -22 4 -23 86 -26 l87 -3 -97 -115
        c-77 -93 -96 -121 -96 -147 l0 -33 150 0 150 0 0 30 0 30 -106 0 -105 0 100
        119 c80 95 101 126 101 150 l0 31 -128 0 c-71 0 -132 -3 -135 -7z"/>
        <path d="M1840 431 l0 -30 85 -3 84 -3 -94 -113 c-79 -95 -95 -120 -95 -148
        l0 -34 145 0 145 0 0 30 0 29 -99 3 -100 3 100 120 c76 92 99 126 97 145 l-3
        25 -132 3 -133 3 0 -30z"/>
        <path d="M2461 438 c-5 -13 -36 -92 -70 -177 -34 -85 -61 -155 -61 -157 0 -2
        18 -4 40 -4 37 0 40 2 51 40 l12 40 74 0 75 0 15 -40 c15 -37 19 -40 56 -40
        33 0 38 3 33 18 -4 9 -37 90 -73 180 l-66 162 -39 0 c-31 0 -40 -5 -47 -22z
        m78 -146 l21 -52 -51 0 c-37 0 -50 4 -46 13 2 6 13 36 23 64 20 57 21 56 53
        -25z"/>
        <path d="M3344 446 c-63 -28 -101 -110 -91 -199 12 -97 72 -152 168 -152 64 0
        100 19 129 68 26 42 25 43 -11 56 -34 12 -49 7 -49 -13 0 -21 -36 -47 -67 -48
        -66 -2 -93 35 -93 128 0 48 4 60 29 85 40 39 83 39 120 0 21 -22 33 -28 54
        -24 37 7 39 14 16 52 -34 56 -132 78 -205 47z"/>
        <path d="M3876 339 c-53 -42 -69 -107 -42 -172 26 -64 113 -93 181 -61 50 23
        75 66 75 128 0 43 -4 53 -39 87 -35 36 -43 39 -93 39 -41 0 -62 -5 -82 -21z
        m119 -54 c47 -46 22 -135 -37 -135 -63 1 -91 88 -43 135 13 14 31 25 40 25 9
        0 27 -11 40 -25z"/>
        <path d="M4350 135 c0 -33 2 -35 35 -35 33 0 35 2 35 35 0 33 -2 35 -35 35
        -33 0 -35 -2 -35 -35z"/>
    </g>
</svg>
